<?xml version="1.0" standalone="no"?>
<!DOCTYPE svg PUBLIC "-//W3C//DTD SVG 20010904//EN"
 "http://www.w3.org/TR/2001/REC-SVG-20010904/DTD/svg10.dtd">
<svg version="1.0" xmlns="http://www.w3.org/2000/svg"
 width="512.000000pt" height="512.000000pt" viewBox="0 0 512.000000 512.000000"
 preserveAspectRatio="xMidYMid meet">

<g transform="translate(0.000000,512.000000) scale(0.100000,-0.100000)"
fill="#000000" stroke="none">
<path d="M2330 5089 c-777 -77 -1460 -488 -1895 -1139 -205 -307 -353 -710
-400 -1090 -17 -142 -20 -441 -5 -575 36 -316 112 -577 251 -861 192 -394 499
-742 869 -989 388 -259 810 -399 1275 -424 1007 -54 1936 477 2399 1371 139
268 222 534 268 853 17 120 17 513 0 635 -122 869 -629 1579 -1402 1964 -247
123 -503 202 -780 241 -139 20 -450 27 -580 14z m541 -958 c222 -48 445 -148
620 -280 706 -532 831 -1527 280 -2220 -49 -61 -113 -96 -158 -85 -81 20 -123
69 -123 145 0 49 1 50 102 191 269 372 304 888 88 1307 -174 337 -484 572
-861 652 -209 44 -478 26 -681 -47 -348 -125 -639 -416 -762 -762 -68 -192
-90 -462 -53 -652 40 -206 118 -377 248 -550 83 -110 90 -164 28 -235 -61 -69
-148 -66 -220 8 -53 56 -157 212 -207 313 -53 106 -107 261 -134 388 -30 136
-32 453 -5 591 135 672 674 1173 1357 1259 89 11 387 -3 481 -23z m-283 -543
c8 -8 12 -62 12 -175 0 -90 2 -163 5 -163 2 0 84 56 181 125 97 69 180 125
185 125 15 0 40 -33 37 -49 -2 -9 -94 -80 -206 -159 l-202 -144 0 -87 0 -87
78 38 c120 58 217 80 352 81 80 1 136 -4 185 -17 91 -23 233 -93 313 -153 52
-39 62 -51 60 -73 -5 -43 -38 -36 -135 29 -182 124 -354 163 -546 127 -112
-22 -291 -99 -303 -130 -3 -7 -3 -66 -2 -133 l3 -121 63 39 c143 86 287 123
452 116 94 -3 131 -10 203 -35 108 -37 225 -106 312 -184 68 -62 79 -90 44
-109 -18 -9 -27 -6 -58 20 -193 166 -343 231 -532 231 -153 0 -290 -44 -436
-140 l-53 -35 0 -117 0 -117 74 35 c101 46 174 64 286 71 66 3 118 0 170 -11
95 -20 259 -100 325 -160 43 -38 48 -47 39 -63 -18 -30 -46 -26 -104 18 -75
57 -178 105 -268 125 -145 32 -335 1 -469 -76 l-53 -30 0 -100 c0 -55 3 -100
8 -100 4 0 30 7 57 16 74 24 213 21 300 -6 78 -24 185 -83 234 -129 27 -26 31
-33 21 -51 -15 -29 -43 -25 -98 15 -156 111 -338 141 -486 80 l-36 -15 0 -105
0 -105 42 0 c29 0 49 -7 65 -22 l23 -21 0 -294 c0 -322 -1 -327 -60 -377 -86
-72 -209 -47 -260 55 -19 35 -20 59 -20 324 l0 286 25 24 c18 18 35 25 65 25
l41 0 -3 107 -3 107 -50 20 c-35 13 -76 19 -140 20 -113 1 -196 -26 -301 -96
-83 -55 -117 -60 -122 -17 -2 21 7 32 55 66 128 90 234 126 363 126 74 0 134
-10 186 -30 12 -5 14 10 12 98 l-3 104 -72 38 c-236 124 -510 95 -725 -75 -47
-36 -82 -35 -86 4 -3 22 6 33 50 66 76 58 172 107 258 134 62 19 96 23 200 23
114 -1 133 -4 220 -34 52 -17 110 -41 128 -51 l32 -19 0 118 0 119 -52 35
c-71 46 -139 79 -223 108 -61 21 -88 24 -210 24 -128 -1 -146 -3 -215 -29
-102 -38 -168 -77 -269 -158 -46 -37 -88 -68 -92 -68 -12 0 -39 30 -39 43 0
34 183 171 302 226 106 50 203 71 321 71 124 0 225 -26 357 -92 58 -29 108
-54 113 -56 4 -2 7 55 7 127 l0 131 -92 44 c-132 64 -201 80 -338 81 -93 0
-129 -4 -190 -23 -90 -29 -186 -78 -258 -133 -56 -42 -87 -47 -106 -17 -15 24
10 49 118 119 247 161 538 179 796 49 33 -17 62 -30 65 -30 3 0 5 39 5 88 l-1
87 -199 140 c-159 111 -200 144 -200 162 0 12 9 27 20 33 18 10 44 -5 198
-114 l177 -126 5 166 c4 132 8 167 20 174 20 13 34 12 48 -2z m-390 -2172 c5
-57 -23 -118 -73 -165 -65 -60 -115 -71 -322 -71 -160 0 -175 2 -193 20 -22
22 -21 40 6 117 16 45 77 106 128 129 24 10 80 13 241 11 l210 -2 3 -39z
m1187 25 c75 -34 131 -109 142 -191 9 -66 -3 -70 -200 -70 -190 1 -243 9 -300
46 -48 32 -94 104 -103 160 -11 74 -10 74 220 74 173 0 207 -3 241 -19z"/>
<path d="M2337 4065 c-598 -97 -1075 -544 -1214 -1135 -34 -146 -43 -390 -19
-543 40 -253 133 -472 286 -676 63 -83 93 -101 133 -80 55 29 50 67 -22 162
-306 410 -362 937 -146 1391 78 165 227 352 370 466 328 261 742 354 1150 258
525 -122 930 -564 1009 -1100 55 -367 -34 -709 -266 -1022 -32 -43 -58 -87
-58 -98 0 -26 44 -68 71 -68 73 0 263 306 338 543 51 160 65 261 65 452 -1
249 -41 418 -151 643 -199 407 -575 697 -1033 797 -106 23 -398 29 -513 10z"/>
<path d="M2470 1356 c0 -271 0 -275 23 -301 13 -15 37 -28 58 -31 31 -5 42 -1
70 24 l34 30 0 274 0 273 -92 2 -93 3 0 -274z"/>
<path d="M1805 1381 c-44 -11 -70 -27 -99 -62 -48 -57 -43 -59 129 -59 110 0
165 4 188 14 37 16 82 61 92 94 l6 22 -143 -1 c-79 -1 -156 -4 -173 -8z"/>
<path d="M3010 1369 c0 -30 69 -94 110 -103 18 -3 100 -6 181 -6 l149 0 -19
39 c-11 21 -37 50 -58 62 -35 22 -51 24 -200 28 l-163 3 0 -23z"/>
</g>
</svg>
